<svg width="107" height="25" viewBox="0 0 107 25" fill="none" xmlns="http://www.w3.org/2000/svg">
<path d="M1.32794 6.75326H8.71994V8.09726H2.95994V11.6813H8.39994V13.0253H2.95994V16.8013H8.71994V18.1453H1.32794V6.75326ZM18.0771 18.1453H16.1571L13.7731 15.1693L11.4211 18.1453H9.48506L12.8451 14.0013L9.67706 10.0813H11.6131L13.7731 12.8333L15.9491 10.0813H17.9011L14.7331 14.0013L18.0771 18.1453ZM23.5653 9.88926C24.2586 9.88926 24.8773 10.0653 25.4213 10.4173C25.9653 10.7693 26.3866 11.2653 26.6853 11.9053C26.9946 12.5453 27.1493 13.2813 27.1493 14.1133C27.1493 14.9453 27 15.6759 26.7013 16.3053C26.4026 16.9239 25.9813 17.4039 25.4373 17.7453C24.8933 18.0866 24.2693 18.2573 23.5653 18.2573C22.9466 18.2573 22.4026 18.1293 21.9333 17.8733C21.4746 17.6066 21.128 17.2279 20.8933 16.7373V21.6013H19.2933V12.3533C19.2933 11.5106 19.2506 10.7533 19.1653 10.0813H20.6693L20.8293 11.5693C21.0426 11.0359 21.3893 10.6253 21.8693 10.3373C22.3493 10.0386 22.9146 9.88926 23.5653 9.88926ZM23.1973 16.9773C23.9226 16.9773 24.488 16.7266 24.8933 16.2253C25.2986 15.7239 25.5013 15.0199 25.5013 14.1133C25.5013 13.1959 25.2986 12.4813 24.8933 11.9693C24.488 11.4466 23.9226 11.1853 23.1973 11.1853C22.4506 11.1853 21.88 11.4359 21.4853 11.9373C21.0906 12.4386 20.8933 13.1533 20.8933 14.0813C20.8933 15.0093 21.0906 15.7239 21.4853 16.2253C21.8906 16.7266 22.4613 16.9773 23.1973 16.9773ZM29.0433 6.36926H30.6433V18.1453H29.0433V6.36926ZM36.4841 18.2573C35.6947 18.2573 35.0014 18.0866 34.4041 17.7453C33.8067 17.4039 33.3427 16.9186 33.0121 16.2893C32.6921 15.6599 32.5321 14.9239 32.5321 14.0813C32.5321 13.2386 32.6921 12.5026 33.0121 11.8733C33.3427 11.2333 33.8067 10.7426 34.4041 10.4013C35.0014 10.0599 35.6947 9.88926 36.4841 9.88926C37.2627 9.88926 37.9507 10.0599 38.5481 10.4013C39.1454 10.7426 39.6041 11.2333 39.9241 11.8733C40.2547 12.5026 40.4201 13.2386 40.4201 14.0813C40.4201 14.9239 40.2547 15.6599 39.9241 16.2893C39.6041 16.9186 39.1454 17.4039 38.5481 17.7453C37.9507 18.0866 37.2627 18.2573 36.4841 18.2573ZM36.4681 16.9773C37.2147 16.9773 37.7854 16.7319 38.1801 16.2413C38.5747 15.7506 38.7721 15.0306 38.7721 14.0813C38.7721 13.1533 38.5694 12.4386 38.1641 11.9373C37.7694 11.4359 37.2094 11.1853 36.4841 11.1853C35.7481 11.1853 35.1774 11.4359 34.7721 11.9373C34.3667 12.4386 34.1641 13.1533 34.1641 14.0813C34.1641 15.0306 34.3614 15.7506 34.7561 16.2413C35.1614 16.7319 35.7321 16.9773 36.4681 16.9773ZM46.3249 9.88926C46.5703 9.88926 46.8263 9.9266 47.0929 10.0013L47.0609 11.4733C46.7729 11.3666 46.4583 11.3133 46.1169 11.3133C45.3809 11.3133 44.8263 11.5373 44.4529 11.9853C44.0903 12.4226 43.9089 12.9773 43.9089 13.6493V18.1453H42.3089V12.3533C42.3089 11.5106 42.2663 10.7533 42.1809 10.0813H43.6849L43.8289 11.5373C44.0423 11.0039 44.3729 10.5986 44.8209 10.3213C45.2689 10.0333 45.7703 9.88926 46.3249 9.88926ZM55.0483 14.1453H49.2883C49.3416 16.0333 50.2003 16.9773 51.8643 16.9773C52.7923 16.9773 53.6403 16.6733 54.4083 16.0653L54.9043 17.2173C54.5416 17.5373 54.0776 17.7933 53.5123 17.9853C52.9576 18.1666 52.3976 18.2573 51.8323 18.2573C50.5416 18.2573 49.5283 17.8893 48.7923 17.1533C48.0563 16.4066 47.6883 15.3879 47.6883 14.0973C47.6883 13.2759 47.8483 12.5453 48.1683 11.9053C48.499 11.2653 48.9576 10.7693 49.5443 10.4173C50.131 10.0653 50.7976 9.88926 51.5443 9.88926C52.6323 9.88926 53.4856 10.2413 54.1043 10.9453C54.7336 11.6493 55.0483 12.6253 55.0483 13.8733V14.1453ZM51.5763 11.0893C50.9683 11.0893 50.4723 11.2706 50.0883 11.6333C49.7043 11.9959 49.459 12.5133 49.3523 13.1853H53.6243C53.5603 12.5026 53.3523 11.9853 53.0003 11.6333C52.6483 11.2706 52.1736 11.0893 51.5763 11.0893ZM68.5443 10.0813V18.1453H66.9443V16.7693C66.7096 17.2493 66.3576 17.6173 65.8883 17.8733C65.4296 18.1293 64.891 18.2573 64.2723 18.2573C63.5576 18.2573 62.9283 18.0866 62.3843 17.7453C61.851 17.4039 61.435 16.9239 61.1363 16.3053C60.8376 15.6759 60.6883 14.9453 60.6883 14.1133C60.6883 13.2813 60.8376 12.5453 61.1363 11.9053C61.4456 11.2653 61.8723 10.7693 62.4163 10.4173C62.9603 10.0653 63.579 9.88926 64.2723 9.88926C64.891 9.88926 65.4296 10.0226 65.8883 10.2893C66.347 10.5453 66.699 10.9133 66.9443 11.3933V10.0813H68.5443ZM64.6563 16.9773C65.3816 16.9773 65.9416 16.7266 66.3363 16.2253C66.7416 15.7133 66.9443 14.9986 66.9443 14.0813C66.9443 13.1533 66.7416 12.4386 66.3363 11.9373C65.9416 11.4359 65.3763 11.1853 64.6403 11.1853C63.915 11.1853 63.3443 11.4466 62.9283 11.9693C62.523 12.4813 62.3203 13.1959 62.3203 14.1133C62.3203 15.0199 62.523 15.7239 62.9283 16.2253C63.3443 16.7266 63.9203 16.9773 64.6563 16.9773ZM70.9183 6.36926H72.5183V18.1453H70.9183V6.36926ZM74.8871 6.36926H76.4871V18.1453H74.8871V6.36926Z" fill="#3D3D3F"/>
<path d="M96.1209 6.43826C95.9335 6.62579 95.8282 6.8801 95.8282 7.14526C95.8282 7.41043 95.9335 7.66474 96.1209 7.85226L99.4129 11.1453L88.9999 11.1523C88.7347 11.1523 88.4804 11.2576 88.2928 11.4452C88.1053 11.6327 87.9999 11.887 87.9999 12.1523C87.9999 12.4175 88.1053 12.6718 88.2928 12.8594C88.4804 13.0469 88.7347 13.1523 88.9999 13.1523L99.4139 13.1453L96.1209 16.4383C96.0254 16.5305 95.9492 16.6409 95.8968 16.7629C95.8444 16.8849 95.8168 17.0161 95.8157 17.1489C95.8145 17.2816 95.8398 17.4133 95.8901 17.5362C95.9404 17.6591 96.0147 17.7708 96.1085 17.8647C96.2024 17.9586 96.3141 18.0328 96.437 18.0831C96.5599 18.1334 96.6916 18.1587 96.8243 18.1575C96.9571 18.1564 97.0883 18.1288 97.2103 18.0764C97.3323 18.024 97.4427 17.9478 97.5349 17.8523L101.121 14.2673C101.4 13.9887 101.621 13.6579 101.771 13.2939C101.922 12.9299 102 12.5398 102 12.1458C102 11.7518 101.922 11.3616 101.771 10.9976C101.621 10.6336 101.4 10.3028 101.121 10.0243L97.5349 6.43826C97.3474 6.25079 97.0931 6.14548 96.8279 6.14548C96.5628 6.14548 96.3085 6.25079 96.1209 6.43826Z" fill="#3D3D3F"/>
</svg>
